<svg width="48" height="48" viewBox="0 0 48 48" fill="none" xmlns="http://www.w3.org/2000/svg">
<g clip-path="url(#clip0_21_1398)">
<path d="M24 48C37.2548 48 48 37.2548 48 24C48 10.7452 37.2548 0 24 0C10.7452 0 0 10.7452 0 24C0 37.2548 10.7452 48 24 48Z" fill="#FD8469"/>
<path d="M24.1134 34.2803C24.0756 34.2803 24.0378 34.3181 24 34.3181C23.9622 34.3181 23.9244 34.2803 23.8866 34.2803H24.1134Z" fill="#84DBFF"/>
<path d="M42.6331 39.1181C38.2488 44.5228 31.5213 48 24 48C16.4787 48 9.75118 44.5228 5.36693 39.1181C8.50394 34.9228 13.3039 32.8441 17.2346 31.8236C16.9323 34.3181 18.2173 37.6441 18.2551 37.5685C19.578 34.5449 24 34.2803 24 34.2803C24 34.2803 28.422 34.5449 29.7071 37.5685C29.7449 37.6441 31.0677 34.3181 30.7276 31.8236C34.6961 32.8441 39.5339 34.9228 42.6331 39.1181Z" fill="#84DBFF"/>
<path d="M29.4047 29.4803C29.4047 29.4803 29.4047 29.4803 29.4047 29.5181C29.4047 29.8961 29.2157 32.315 24.1134 34.2425H23.8866C18.7843 32.315 18.5953 29.8961 18.5953 29.5181C18.5953 29.4803 18.5953 29.4803 18.5953 29.4803C18.5953 28.989 18.7087 28.4976 18.822 28.0063C20.2961 29.8583 22.0724 31.1055 24 31.1055C25.9276 31.1055 27.7039 29.8583 29.178 28.0063C29.2913 28.4976 29.4047 28.989 29.4047 29.4803Z" fill="white"/>
<path d="M29.4047 29.4803C29.4047 29.4803 29.6693 32.2016 24 34.3181C24 34.3181 28.422 34.5827 29.7071 37.6063C29.7827 37.6819 32.315 31.1055 29.4047 29.4803Z" fill="#54C0EB"/>
<path d="M18.5953 29.4803C15.685 31.1055 18.2173 37.6819 18.2929 37.5685C19.6157 34.5449 24 34.2803 24 34.2803C18.3307 32.2016 18.5953 29.4803 18.5953 29.4803Z" fill="#54C0EB"/>
<path d="M31.937 19.9181C31.5968 22.2614 30.5764 24.4535 28.8756 26.1165C28.5354 26.4567 28.2331 26.7213 27.8551 26.9858L27.2504 25.0583H20.7496L20.1449 26.9858C18.9354 26.0787 16.4031 23.5465 16.3654 21.1654C15.3071 7.59685 25.7008 10.4693 25.7008 10.4693C32.6929 9.97795 32.4661 16.1386 31.937 19.9181Z" fill="white"/>
<path d="M33.3354 22.3748C32.8063 23.2441 32.0882 23.8488 31.4079 24.0756C31.6724 23.4709 31.8992 22.8283 32.0882 22.1858C32.0882 22.1858 32.0882 22.1858 32.0882 22.148C32.2394 21.5811 32.3905 21.0142 32.5417 20.4472H32.5039C32.6551 19.8803 32.8063 19.3134 32.9197 18.7465C33.0709 18.7465 33.222 18.822 33.3732 18.8976C34.2047 19.4268 34.1669 20.9764 33.3354 22.3748Z" fill="white"/>
<path d="M16.5921 24.0756C15.9118 23.8488 15.1937 23.2441 14.6646 22.3748C13.7953 20.9764 13.7953 19.4268 14.6268 18.9354C14.7024 18.8976 14.7402 18.8598 14.8157 18.8598C15.2693 20.6362 15.7984 21.9591 15.9118 22.2236C16.1008 22.8283 16.3276 23.4709 16.5921 24.0756Z" fill="white"/>
<path d="M28.1197 6.68976C28.422 3.2126 22.9039 3.43937 22.9039 3.43937C14.5512 4.64882 13.6441 12.4346 13.6441 12.4346L14.778 11.074C13.0016 14.9669 15.685 21.6567 15.9118 22.1858C17.3102 26.8346 20.4094 31.1055 24 31.1055C27.5906 31.1055 30.6898 26.8346 32.0882 22.1858C32.0882 22.1858 32.0882 22.1858 32.0882 22.148C32.2394 21.5811 32.3906 21.0142 32.5039 20.4472H32.4661C33.222 17.4236 34.0535 14.3622 34.0535 14.3622C36.2079 3.51496 28.1197 6.68976 28.1197 6.68976ZM31.937 19.9181C31.5968 22.2614 30.5764 24.4535 28.8756 26.1165C28.5354 26.4567 28.1953 26.7213 27.8551 26.9858L27.2504 25.0961H20.7496L20.1449 27.0236C18.9354 26.1165 17.915 24.8693 17.0835 23.4331C16.7055 22.6772 16.4787 21.8835 16.3654 21.2031C15.3071 7.63464 25.7008 10.5071 25.7008 10.5071C32.6929 9.97795 32.4661 16.1386 31.937 19.9181Z" fill="#324A5E"/>
<path d="M28.1197 6.68976C28.422 3.2126 22.9039 3.43937 22.9039 3.43937C14.5512 4.64882 13.6441 12.4346 13.6441 12.4346L14.778 11.074C13.0016 14.9669 15.685 21.6567 15.9118 22.1858C17.3102 26.8346 20.4094 31.1055 24 31.1055C27.5906 31.1055 30.6898 26.8346 32.0882 22.1858C32.0882 22.1858 32.0882 22.1858 32.0882 22.148C32.2394 21.5811 32.3906 21.0142 32.5039 20.4472H32.4661C33.222 17.4236 34.0535 14.3622 34.0535 14.3622C36.2079 3.51496 28.1197 6.68976 28.1197 6.68976ZM31.937 19.9181C31.5968 22.2614 30.5764 24.4535 28.8756 26.1165C28.5354 26.4567 28.1953 26.7213 27.8551 26.9858L27.2504 25.0961H20.7496L20.1449 27.0236C18.9354 26.1165 17.915 24.8693 17.0835 23.4331C16.7055 22.6772 16.4787 21.8835 16.3654 21.2031C15.3071 7.63464 25.7008 10.5071 25.7008 10.5071C32.6929 9.97795 32.4661 16.1386 31.937 19.9181Z" fill="#324A5E"/>
<path d="M28.1197 6.68976C28.422 3.2126 22.9039 3.43937 22.9039 3.43937C14.5512 4.64882 13.6441 12.4346 13.6441 12.4346L14.778 11.074C13.0016 14.9669 15.685 21.6567 15.9118 22.1858C17.3102 26.8346 20.4094 31.1055 24 31.1055C27.5906 31.1055 30.6898 26.8346 32.0882 22.1858C32.0882 22.1858 32.0882 22.1858 32.0882 22.148C32.2394 21.5811 32.3906 21.0142 32.5039 20.4472H32.4661C33.222 17.4236 34.0535 14.3622 34.0535 14.3622C36.2079 3.51496 28.1197 6.68976 28.1197 6.68976ZM31.937 19.9181C31.5968 22.2614 30.5764 24.4535 28.8756 26.1165C28.5354 26.4567 28.1953 26.7213 27.8551 26.9858L27.2504 25.0961H20.7496L20.1449 27.0236C18.9354 26.1165 16.4031 23.5843 16.3654 21.2031C15.3071 7.63464 25.7008 10.5071 25.7008 10.5071C32.6929 9.97795 32.4661 16.1386 31.937 19.9181Z" fill="#324A5E"/>
<path d="M21.3543 26.3811C21.9969 27.0992 22.9417 27.5906 24 27.5906C25.0583 27.5906 26.0031 27.137 26.6457 26.3811H21.3543Z" fill="white"/>
</g>
<defs>
<clipPath id="clip0_21_1398">
<rect width="48" height="48" fill="white"/>
</clipPath>
</defs>
</svg>
